<svg width="30" height="30" viewBox="0 0 30 30" fill="none" xmlns="http://www.w3.org/2000/svg">
<path d="M15 0.370361C6.7125 0.370361 2.18932e-06 7.08286 2.18932e-06 15.3704C-0.00169914 18.5193 0.988222 21.5888 2.82933 24.1434C4.67043 26.698 7.26922 28.608 10.257 29.6024C11.007 29.7329 11.2875 29.2829 11.2875 28.8884C11.2875 28.5329 11.268 27.3524 11.268 26.0954C7.5 26.7899 6.525 25.1774 6.225 24.3329C6.0555 23.9009 5.325 22.5704 4.6875 22.2134C4.1625 21.9329 3.4125 21.2384 4.668 21.2204C5.85 21.2009 6.693 22.3079 6.975 22.7579C8.325 25.0259 10.482 24.3884 11.343 23.9954C11.475 23.0204 11.868 22.3649 12.3 21.9899C8.9625 21.6149 5.475 20.3204 5.475 14.5829C5.475 12.9509 6.0555 11.6024 7.0125 10.5509C6.8625 10.1759 6.3375 8.63836 7.1625 6.57586C7.1625 6.57586 8.418 6.18286 11.2875 8.11486C12.5086 7.77595 13.7703 7.60538 15.0375 7.60786C16.3125 7.60786 17.5875 7.77586 18.7875 8.11336C21.6555 6.16336 22.9125 6.57736 22.9125 6.57736C23.7375 8.63986 23.2125 10.1774 23.0625 10.5524C24.018 11.6024 24.6 12.9329 24.6 14.5829C24.6 20.3399 21.0945 21.6149 17.757 21.9899C18.3 22.4579 18.7695 23.3579 18.7695 24.7649C18.7695 26.7704 18.75 28.3829 18.75 28.8899C18.75 29.2829 19.032 29.7509 19.782 29.6009C22.7595 28.5956 25.3469 26.6819 27.1799 24.1291C29.0128 21.5763 29.9991 18.513 30 15.3704C30 7.08286 23.2875 0.370361 15 0.370361Z" fill="white"/>
</svg>
