<svg width="158" height="467" viewBox="0 0 158 467" fill="none" xmlns="http://www.w3.org/2000/svg">
<g filter="url(#filter0_f_177_1075)">
<path d="M321.546 48.7554C312.412 18.7613 132.057 225.15 132.057 225.15C132.057 225.15 118.899 284.9 101.182 332.73C67.208 328.181 28.9934 358.747 52.0748 385.662C68.2706 404.548 86.3283 372.828 101.182 332.73C119.482 335.181 136.551 347.82 142.147 376.706C158.132 459.221 197.849 403.41 197.849 403.41C197.849 403.41 217.35 362.739 247.788 358.136L248.058 358.095C278.239 353.533 280.657 353.168 284.994 227.533C289.343 101.524 330.681 78.7494 321.546 48.7554Z" fill="#70E61C"/>
</g>
<defs>
<filter id="filter0_f_177_1075" x="0.0352783" y="0.776367" width="367.825" height="466.084" filterUnits="userSpaceOnUse" color-interpolation-filters="sRGB">
<feFlood flood-opacity="0" result="BackgroundImageFix"/>
<feBlend mode="normal" in="SourceGraphic" in2="BackgroundImageFix" result="shape"/>
<feGaussianBlur stdDeviation="22.5" result="effect1_foregroundBlur_177_1075"/>
</filter>
</defs>
</svg>
