<svg width="50" height="50" viewBox="0 0 50 50" fill="none" xmlns="http://www.w3.org/2000/svg">
<path id="Vector" d="M20.6587 1.99601C23.5529 2.09581 25.8483 4.49102 25.8483 7.38523V8.88224V10.8782H27.8443H34.9301H35.0299C35.5289 10.8782 36.0279 10.978 36.5269 11.1776C36.9261 11.3772 37.3253 11.5768 37.7245 11.8762L37.9241 12.0759C38.3233 12.4751 38.6227 12.8743 38.8223 13.3733C39.022 13.8723 39.1217 14.3713 39.1217 14.9701V22.0559V24.0519H41.1178H42.6148C45.6088 24.0519 48.004 26.3473 48.004 29.2415C48.004 32.2355 45.6088 34.6307 42.7146 34.6307H41.1178H39.1217V36.6267V43.7126C39.1217 46.008 37.3253 47.9042 35.0299 47.9042H27.0459V44.8104C27.0459 44.1118 26.9461 43.3134 26.6467 42.6148C26.3473 41.9162 25.9481 41.3174 25.4491 40.8184C24.2515 39.6208 22.5549 38.9222 20.7585 38.9222H20.6587C19.2615 38.9222 17.9641 39.3214 16.8663 40.1198H16.7665L16.1677 40.6188C14.8703 41.7166 14.2715 43.2136 14.2715 44.8104V47.8044H6.38722C5.38922 47.8044 4.39122 47.4052 3.59281 46.7066L3.39321 46.507C2.59481 45.7086 2.19561 44.6108 2.19561 43.513V35.6287H5.28942C6.78643 35.6287 8.28343 35.0299 9.48104 33.8323C10.0798 33.2335 10.5788 32.4351 10.8782 31.6367C11.1776 30.8383 11.3772 29.9401 11.3772 29.0419C11.2774 25.6487 8.48303 22.7545 5.18962 22.7545H1.99601V14.7705C1.99601 14.1717 2.09581 13.6727 2.29541 13.1737C2.49501 12.6747 2.79441 12.2754 3.19361 11.8762C3.99202 11.0778 4.99002 10.6786 6.18762 10.6786H13.2734H15.2695V8.68264V7.28543C15.2695 6.58683 15.3693 5.88823 15.6687 5.18962L15.7685 5.08983C16.0679 4.49102 16.4671 3.99202 16.8663 3.49301C17.3653 2.99401 17.9641 2.59481 18.5629 2.39521C19.1617 2.09581 19.8603 1.99601 20.6587 1.99601ZM20.5589 0C19.6607 0 18.6627 0.199601 17.7645 0.499002C16.8663 0.898203 16.0679 1.39721 15.3693 2.09581C14.6707 2.79442 14.1717 3.59281 13.7725 4.49102C13.3733 5.38922 13.1737 6.38723 13.1737 7.28543V8.88224H6.08782C4.49102 8.88224 2.89421 9.48104 1.79641 10.5788C1.1976 11.1776 0.798403 11.7765 0.399202 12.5749C0.199601 13.3733 0 14.1717 0 14.9701V24.9501H4.99002C7.28543 24.9501 9.18164 26.9461 9.28144 29.3413C9.28144 29.9401 9.18163 30.5389 8.88223 31.1377C8.68263 31.7365 8.28343 32.2355 7.88423 32.6347C7.08583 33.4331 6.08782 33.8323 5.08982 33.8323H0V43.7126C0 45.3094 0.698603 46.9062 1.79641 48.1038C2.99401 49.3014 4.49102 49.9002 6.18762 49.9002H16.0679V44.9102C16.0679 43.6128 16.7665 42.7146 17.3653 42.2156C18.2635 41.4172 19.3613 41.018 20.5589 41.018C20.5589 41.018 20.5589 41.018 20.6587 41.018C21.9561 41.018 23.1537 41.517 23.9521 42.3154C24.2515 42.6148 24.5509 43.014 24.7505 43.513C24.9501 43.9122 25.0499 44.4112 25.0499 44.9102V50H35.0299C38.4231 50 41.1178 47.2056 41.1178 43.8124V36.7265H42.7146C46.7066 36.7265 50 33.4331 50 29.3413C50 25.3493 46.7066 22.1557 42.6148 22.1557H41.1178V15.0699C41.1178 14.2715 41.018 13.4731 40.6188 12.6747C40.3194 11.8763 39.8204 11.2774 39.3214 10.6786C38.7225 10.0798 38.1237 9.68064 37.3253 9.38124C36.6267 9.08184 35.8283 8.98203 35.0299 8.98203C35.0299 8.98203 35.0299 8.98203 34.9301 8.98203H27.8443V7.48503C27.8443 3.39321 24.6507 0.0998004 20.5589 0C20.6587 0 20.6587 0 20.5589 0Z" fill="#70E61C"/>
</svg>
