<svg width="41" height="45" viewBox="0 0 41 45" fill="none" xmlns="http://www.w3.org/2000/svg">
<path id="Vector" d="M0.633654 0.00792943C0.633654 0.182377 0.625718 0.301318 0.633654 0.42026C0.935227 3.7189 1.2368 7.01755 1.53044 10.3241C1.94311 15.0025 2.34786 19.6808 2.76054 24.3513C3.22877 29.6006 3.70493 34.8419 4.15729 40.0912C4.18904 40.4718 4.32395 40.6383 4.68108 40.7335C9.7602 42.1291 14.8234 43.5326 19.9026 44.9202C20.2438 45.0154 20.6565 45.0312 20.9977 44.9361C26.0927 43.5405 31.1798 42.1211 36.2748 40.7176C36.6637 40.6066 36.7986 40.4322 36.8303 40.0357C36.989 38.0533 37.1795 36.063 37.3541 34.0807C37.6477 30.7979 37.9334 27.5151 38.2271 24.2323C38.5683 20.3786 38.9175 16.5329 39.2588 12.6792C39.5127 9.8087 39.7826 6.94618 40.0365 4.07573C40.1555 2.72772 40.2587 1.37972 40.3698 0H0.633654V0.00792943ZM32.7035 11.458C32.4416 14.3602 32.1797 17.2703 31.9179 20.1725C31.6163 23.5108 31.3147 26.849 31.0131 30.1794C30.9258 31.1389 30.7989 32.0983 30.7751 33.0657C30.7592 33.5811 30.537 33.7159 30.1084 33.8349C27.0451 34.6595 23.9897 35.508 20.9343 36.3485C20.7993 36.3881 20.6724 36.4357 20.5375 36.4754C20.4898 36.4516 20.4422 36.4357 20.3867 36.4119C17.117 35.5238 13.8473 34.6278 10.5776 33.7239C10.4427 33.6842 10.2681 33.4701 10.2522 33.3195C10.0221 30.8455 9.81575 28.3715 9.59354 25.8499H14.5854C14.6727 26.8411 14.7679 27.8482 14.8473 28.8631C14.9187 29.7988 14.9107 29.7988 15.7917 30.0367C17.3709 30.4569 18.9582 30.8693 20.5375 31.2816L20.5216 31.2419C22.2517 30.782 23.9817 30.3301 25.7118 29.8384C25.8705 29.7909 26.0531 29.5371 26.0769 29.3627C26.18 28.6014 26.2356 27.8323 26.2991 27.0711C26.4022 25.842 26.5054 24.6129 26.6165 23.3284H20.5216L20.5375 23.2967C20.4978 23.2967 20.4502 23.2967 20.4105 23.2967H9.36339C9.2126 21.6553 9.06975 20.0297 8.91897 18.3566H20.4184C20.4581 18.3566 20.5057 18.3566 20.5454 18.3566L20.5295 18.3249H27.0609C27.2117 16.6201 27.3625 14.9549 27.5133 13.258H20.5216L20.5375 13.2263C20.4978 13.2263 20.4502 13.2263 20.4105 13.2263C16.498 13.2342 12.5855 13.2342 8.67295 13.2421C8.61739 13.2421 8.56184 13.2184 8.45867 13.1866C8.31582 11.569 8.16504 9.95143 8.02218 8.28625H20.4105C20.4502 8.28625 20.4978 8.28625 20.5375 8.28625L20.5216 8.25453H32.9654C32.8781 9.36466 32.7908 10.4113 32.7035 11.458Z" fill="white"/>
</svg>
