<svg width="61" height="60" viewBox="0 0 61 60" fill="none" xmlns="http://www.w3.org/2000/svg">
<g id="Frame" clip-path="url(#clip0_490_3296)">
<g id="Group">
<g id="Group_2">
<path id="Vector" d="M8.05747 9.80005V50.3C3.15747 44.9 0.157471 37.8 0.157471 30C0.157471 22.2 3.15747 15.1 8.05747 9.80005Z" fill="white"/>
<path id="Vector_2" d="M11.2574 14.2L28.5574 48.9H11.2574V14.2Z" fill="white"/>
<path id="Vector_3" d="M30.1575 45.0001L13.1575 11.1001H47.1575L30.1575 45.0001Z" fill="white"/>
<path id="Vector_4" d="M30.1575 0C37.9575 0 45.0575 3 50.3575 7.9H9.95746C15.2575 3 22.3575 0 30.1575 0Z" fill="white"/>
<path id="Vector_5" d="M49.0574 48.9H31.7574L49.0574 14.2V48.9Z" fill="white"/>
<path id="Vector_6" d="M50.3575 52.1001C45.0575 57.0001 37.9575 60.0001 30.1575 60.0001C22.3575 60.0001 15.2575 57.0001 9.95746 52.1001H50.3575Z" fill="white"/>
<path id="Vector_7" d="M52.2574 50.2001V9.80005C57.1574 15.1 60.1574 22.2 60.1574 30C60.1574 37.8 57.1574 44.9001 52.2574 50.2001Z" fill="white"/>
</g>
<g id="Group_3">
<path id="Vector_8" d="M11.2574 14.2002L28.5574 48.9002H11.2574V14.2002Z" fill="white"/>
<path id="Vector_9" d="M30.1575 45.0001L13.1575 11.1001H47.1575L30.1575 45.0001Z" fill="white"/>
<path id="Vector_10" d="M31.7574 48.9002L49.0574 14.2002V48.9002H31.7574Z" fill="white"/>
</g>
<g id="Group_4">
<path id="Vector_11" d="M13.1575 11.1001H47.1575L30.1575 45.0001L13.1575 11.1001Z" fill="white"/>
</g>
</g>
</g>
<defs>
<clipPath id="clip0_490_3296">
<rect width="60" height="60" fill="white" transform="translate(0.157471)"/>
</clipPath>
</defs>
</svg>
