<svg width="65" height="60" viewBox="0 0 65 60" fill="none" xmlns="http://www.w3.org/2000/svg">
<g id="scrum">
<g id="Group">
<path id="Vector" fill-rule="evenodd" clip-rule="evenodd" d="M63.4173 15.7639L57.7355 23.7083L52.0538 15.7639H55.1516C54.9155 9.86111 50.0394 5.13889 44.0798 5.13889C39.0509 5.13889 34.7861 8.51389 33.4386 13.1111C31.7994 12.5833 30.1046 12.25 28.382 12.0972C28.5764 11.3611 28.8265 10.625 29.1321 9.91667C29.9517 7.98611 31.1187 6.25 32.6051 4.76389C34.0915 3.27778 35.828 2.09722 37.759 1.29167C39.7594 0.430556 41.8849 0 44.0798 0C46.2747 0 48.4002 0.430556 50.4006 1.27778C52.3316 2.09722 54.0681 3.26389 55.5545 4.75C57.0409 6.23611 58.2079 7.97222 59.0275 9.90278C59.8193 11.7639 60.25 13.7361 60.2916 15.7639H63.4173Z" fill="white"/>
</g>
<g id="Group_2">
<path id="Vector_2" fill-rule="evenodd" clip-rule="evenodd" d="M55.4711 59.9999V56.5832H35.8835C36.0225 56.5138 36.1614 56.4582 36.3003 56.3888C38.4258 55.3749 40.3845 54.0554 42.1349 52.4443C42.3711 52.2221 42.5933 52.0138 42.8017 51.8054C43.0379 51.5693 43.2879 51.3193 43.5241 51.0554C43.8019 50.7499 44.0798 50.4304 44.3298 50.111H55.4711V46.6943L64.7787 53.3471L55.4711 59.9999Z" fill="white"/>
</g>
<g id="Group_3">
<path id="Vector_3" fill-rule="evenodd" clip-rule="evenodd" d="M48.2474 35.3195C48.2474 38.2778 47.6639 41.1528 46.5248 43.8611C45.5523 46.1667 44.1909 48.2778 42.4961 50.125C42.2738 50.3611 42.0516 50.5973 41.8293 50.8334C41.6209 51.0417 41.4125 51.2361 41.2042 51.4445C39.5649 52.9584 37.7312 54.1945 35.7308 55.1528C35.4529 55.2917 35.1612 55.4167 34.8695 55.5417C34.8556 55.5417 34.8556 55.5556 34.8417 55.5556C33.1746 56.2639 31.3826 56.6111 29.5627 56.6111H0.667603V50.1528H27.4929C35.6057 50.1528 42.2599 43.6667 42.3711 35.5556C42.3711 35.4861 42.3711 35.4167 42.3711 35.3473C42.3711 26.4861 35.1751 19.2917 26.312 19.2917C17.449 19.2639 10.253 26.4445 10.253 35.3195H13.976L7.32182 44.625L0.667603 35.3195H4.39063C4.39063 32.3611 4.97409 29.4861 6.11323 26.7778C7.22458 24.1667 8.79436 21.8195 10.8087 19.8056C12.823 17.7917 15.1707 16.2084 17.7824 15.1111C20.4913 13.9722 23.367 13.3889 26.3259 13.3889C26.9233 13.3889 27.5067 13.4167 28.0902 13.4584C29.8128 13.5972 31.4937 13.9306 33.133 14.4722C33.7164 14.6667 34.286 14.875 34.8556 15.125C37.4672 16.2361 39.815 17.8056 41.8293 19.8195C43.8436 21.8334 45.4273 24.1806 46.5248 26.7917C47.6639 29.4861 48.2474 32.3611 48.2474 35.3195Z" fill="white"/>
</g>
</g>
</svg>
