<svg width="61" height="60" viewBox="0 0 61 60" fill="none" xmlns="http://www.w3.org/2000/svg">
<g id="wp">
<path id="Vector" d="M30.6676 1.80018C34.475 1.80018 38.1654 2.54725 41.6487 4.0144C43.3229 4.72547 44.934 5.59856 46.4372 6.61566C47.9313 7.62376 49.3355 8.78488 50.6136 10.063C51.8917 11.3411 53.0528 12.7453 54.0609 14.2394C55.078 15.7426 55.9511 17.3627 56.6622 19.0279C58.1293 22.5023 58.8764 26.1926 58.8764 30.009C58.8764 33.8254 58.1293 37.5068 56.6622 40.9901C55.9511 42.6643 55.078 44.2754 54.0609 45.7786C53.0528 47.2727 51.8917 48.6769 50.6136 49.955C49.3355 51.2331 47.9313 52.3942 46.4372 53.4023C44.934 54.4194 43.3139 55.2925 41.6487 56.0036C38.1744 57.4707 34.484 58.2178 30.6676 58.2178C26.8602 58.2178 23.1699 57.4707 19.6865 56.0036C18.0123 55.2925 16.4012 54.4194 14.898 53.4023C13.4039 52.3942 11.9997 51.2331 10.7216 49.955C9.44348 48.6769 8.28236 47.2727 7.27426 45.7786C6.25716 44.2754 5.38407 42.6553 4.673 40.9901C3.21486 37.5068 2.46778 33.8074 2.46778 30C2.46778 26.1926 3.21486 22.5023 4.682 19.0189C5.39307 17.3447 6.26616 15.7336 7.28326 14.2304C8.29137 12.7363 9.45248 11.3321 10.7306 10.054C12.0087 8.77588 13.4129 7.61476 14.907 6.60666C16.4102 5.58956 18.0303 4.71647 19.6955 4.0054C23.1699 2.54725 26.8602 1.80018 30.6676 1.80018ZM30.6676 0C14.0969 0 0.667603 13.4293 0.667603 30C0.667603 46.5707 14.0969 60 30.6676 60C47.2383 60 60.6676 46.5707 60.6676 30C60.6766 13.4293 47.2383 0 30.6676 0Z" fill="white"/>
<path id="Vector_2" d="M5.67004 30.0001C5.67004 39.8921 11.4216 48.452 19.7655 52.5024L7.83926 19.8291C6.44412 22.9344 5.67004 26.3818 5.67004 30.0001ZM47.5512 28.74C47.5512 25.6527 46.4441 23.5105 45.49 21.8453C44.2209 19.7841 43.0328 18.0379 43.0328 15.9857C43.0328 13.6905 44.779 11.5483 47.2272 11.5483C47.3352 11.5483 47.4432 11.5573 47.5512 11.5663C43.1048 7.48889 37.1732 5.00464 30.6655 5.00464C21.9347 5.00464 14.2479 9.48709 9.77445 16.2738C10.3595 16.2918 10.9176 16.3008 11.3856 16.3008C13.9959 16.3008 18.0463 15.9857 18.0463 15.9857C19.3964 15.9047 19.5494 17.8849 18.2083 18.0469C18.2083 18.0469 16.8492 18.209 15.346 18.281L24.4549 45.3647L29.9275 28.956L26.0301 18.281C24.6799 18.2 23.4108 18.0469 23.4108 18.0469C22.0607 17.9659 22.2227 15.9047 23.5728 15.9857C23.5728 15.9857 27.7042 16.3008 30.1615 16.3008C32.7718 16.3008 36.8222 15.9857 36.8222 15.9857C38.1723 15.9047 38.3253 17.8849 36.9842 18.0469C36.9842 18.0469 35.625 18.209 34.1219 18.281L43.1498 45.1577L45.7331 36.9848C46.8762 33.4115 47.5512 30.8822 47.5512 28.74ZM31.1066 32.1874L23.5998 53.9875C25.8411 54.6446 28.2083 55.0046 30.6655 55.0046C33.5728 55.0046 36.3721 54.5006 38.9644 53.5915C38.9014 53.4835 38.8384 53.3665 38.7844 53.2495L31.1066 32.1874ZM52.6097 18.0109C52.7178 18.803 52.7808 19.6581 52.7808 20.5852C52.7808 23.1235 52.3037 25.9767 50.8816 29.5411L43.2398 51.6113C50.6745 47.2819 55.67 39.2261 55.67 30.0001C55.67 25.6527 54.5629 21.5663 52.6097 18.0109Z" fill="white"/>
</g>
</svg>
